<svg xmlns="http://www.w3.org/2000/svg" xmlns:xlink="http://www.w3.org/1999/xlink" version="1.1" width="48" height="48" viewBox="0 0 48 48" xml:space="preserve"><defs/><g style="stroke: none; stroke-width: 0; stroke-dasharray: none; stroke-linecap: butt; stroke-linejoin: miter; stroke-miterlimit: 10; fill: none; fill-rule: nonzero; opacity: 1;" transform="translate(1.407 1.407)scale(2.81)"><path d="M12.972 7.218c-0.264 -0.149 -0.516 -0.31 -0.814 -0.482a25.875 25.875 0 0 1 0.837 -0.493c1.226 -0.665 1.903 -2.017 1.696 -3.393 -0.298 -2.258 -2.9 -3.564 -4.871 -2.441C7.803 1.568 5.786 2.702 3.791 3.894c-1.582 0.951 -1.811 2.212 -1.559 3.702 0.161 0.928 0.779 1.616 1.593 2.086 0.286 0.161 0.562 0.321 0.871 0.504 -0.344 0.206 -0.653 0.39 -0.986 0.562 -1.467 0.928 -1.972 2.831 -1.146 4.367 0.871 1.616 2.888 2.235 4.505 1.364 1.742 -0.986 3.484 -1.994 5.215 -3.003 0.413 -0.241 0.848 -0.458 1.215 -0.757 1.845 -1.536 1.57 -4.321 -0.527 -5.502M6.817 10.978V5.969l4.333 2.499z" style="stroke: none; stroke-width: 1; stroke-dasharray: none; stroke-linecap: butt; stroke-linejoin: miter; stroke-miterlimit: 10; fill: rgb(0,0,0); fill-rule: nonzero; opacity: 1;" stroke-linecap="round"/></g><path x1="40" y1="20" x2="220" y2="220" stroke="red" stroke-linecap="round" stroke-width="2.8125" d="M7.5 3.75L41.25 41.25"/><path x1="40" y1="220" x2="220" y2="20" stroke="red" stroke-linecap="round" stroke-width="2.8125" d="M7.5 41.25L41.25 3.75"/></svg>